<svg width="160" height="164" viewBox="0 0 160 164" fill="none" xmlns="http://www.w3.org/2000/svg">
<g clip-path="url(#clip0_216_400)">
<path d="M57.3848 120.265C54.6152 120.626 52.0927 118.721 51.6957 115.969C51.29 113.226 53.354 110.624 56.2117 110.289C59.0607 109.954 61.3451 111.788 61.7068 114.717C62.0684 117.619 60.2955 119.894 57.3848 120.265Z" fill="#FB8500"/>
<path d="M106.831 158.518C98.3638 164.675 89.2171 164.172 80.1587 160.238C76.2954 158.553 72.8555 155.837 69.345 153.429C67.5545 152.203 65.9492 150.668 64.388 149.142C60.7364 145.588 56.6703 143.418 52.1719 142.456C53.7066 141.469 55.4354 140.684 57.3494 140.066C61.1774 138.84 65.076 139.343 68.9569 139.29C77.9448 139.175 83.431 133.504 85.5302 125.663C85.883 124.375 85.1862 123.625 84.0572 123.078C80.044 121.155 76.0837 119.136 72.044 117.239C69.9183 116.243 68.7629 114.743 68.41 112.37C66.5049 99.828 55.7882 90.2315 43.3869 88.8908C41.9227 88.7233 40.4233 88.6792 38.9238 88.7585C25.3847 89.473 16.4586 98.1874 13.6449 107.943C12.4453 112.123 12.0837 116.357 12.7717 120.485C13.3274 124.736 14.3946 128.644 16.8819 132.004C19.4839 135.524 22.8974 137.208 27.3516 136.265C31.4795 135.391 33.7287 132.587 34.9018 128.785C36.2513 124.366 36.1984 119.85 35.1311 115.431C34.4167 112.476 33.1818 109.627 31.9823 106.805C30.7298 103.868 31.4354 101.089 34.0374 99.7133C36.6217 98.355 39.4619 99.2811 40.9525 102.139C45.9183 111.63 47.4883 121.588 44.4718 131.951C43.1752 136.415 40.8908 140.004 37.6096 142.509C33.2259 142.8 28.8423 142.739 24.5027 141.513C14.1212 138.576 5.58315 133.23 3.39572 121.949C1.13773 110.289 4.52472 99.9956 14.2006 92.5865C17.7551 89.8611 21.9536 87.8148 26.0991 86.0331C32.485 83.2811 38.5181 80.2205 43.8544 75.5898C49.7904 70.4388 56.7232 66.8489 64.5644 65.3319C69.9977 64.2822 75.3516 64.5116 79.4001 65.9669C89.3935 69.3539 95.5148 75.4399 99.4486 83.5898C101.68 88.2029 102.95 93.2569 104.758 98.0816C106.408 102.474 108.031 106.884 109.98 111.144C112.194 115.987 115.211 120.503 117.054 125.46C121.332 137.006 116.789 151.268 106.805 158.527L106.831 158.518Z" fill="#FB8500"/>
<path d="M87.2414 33.4994C85.2569 39.1268 82.6108 44.1896 78.0154 48.0176C69.7773 54.8622 57.5876 53.2922 51.4311 44.516C47.1179 38.3682 46.1742 31.4443 47.409 24.2029C48.8291 15.8765 52.5248 8.77617 59.5634 3.79271C69.7949 -3.46639 81.9845 -1.33241e-05 86.8886 11.5457C89.9845 18.8313 89.5964 26.2139 87.2414 33.4994Z" fill="#FB8500"/>
<path d="M133.945 49.3848C131.431 56.0265 126.536 62.7387 118.033 66.0728C107.166 70.3418 95.5677 63.8677 93.3362 52.4366C91.0429 40.6792 97.517 25.6582 107.607 19.2988C118.624 12.3572 130.928 16.7938 134.977 29.1687C136.794 34.7166 136.617 41.4289 133.936 49.3848H133.945Z" fill="#FB8500"/>
<path d="M120.3 83.5369C123.061 76.4983 127.391 70.871 134.351 67.6075C145.27 62.4829 156.604 68.022 159.356 79.7883C162.082 91.4134 155.793 104.785 145.076 110.015C137.958 113.491 131.14 112.811 124.878 107.996C118.677 103.224 117.566 96.6262 118.818 89.376C119.162 87.4002 119.788 85.4774 120.291 83.5369H120.3Z" fill="#FB8500"/>
<path d="M38.1743 57.1202C36.7366 59.8015 35.5459 62.6593 33.8083 65.129C26.6109 75.3517 11.9075 75.3517 4.5161 65.2525C-3.76616 53.9449 -0.22922 35.3517 11.6341 27.8633C21.5569 21.6009 33.3673 25.6935 37.8127 36.9658C40.4323 43.6075 40.2471 50.2844 38.1831 57.1202H38.1743Z" fill="#FB8500"/>
</g>
<defs>
<clipPath id="clip0_216_400">
<rect width="160" height="163.175" fill="white"/>
</clipPath>
</defs>
</svg>
